<svg xmlns="http://www.w3.org/2000/svg" width="18" height="18" viewBox="0 0 18 18">
  <g id="visibility-outlined" opacity="0.6">
    <path id="Path_2619" data-name="Path 2619" d="M0,0H18V18H0Z" fill="none"/>
    <path id="Path_2620" data-name="Path 2620" d="M9.25,5.5a7.328,7.328,0,0,1,6.615,4.125,7.367,7.367,0,0,1-13.23,0A7.328,7.328,0,0,1,9.25,5.5m0-1.5A8.87,8.87,0,0,0,1,9.625a8.863,8.863,0,0,0,16.5,0A8.87,8.87,0,0,0,9.25,4Zm0,3.75A1.875,1.875,0,1,1,7.375,9.625,1.876,1.876,0,0,1,9.25,7.75m0-1.5a3.375,3.375,0,1,0,3.375,3.375A3.38,3.38,0,0,0,9.25,6.25Z" transform="translate(-0.25 -1)" fill="#9b9a9a"/>
  </g>
</svg>
